<?xml version="1.0" standalone="no"?>
<!DOCTYPE svg PUBLIC "-//W3C//DTD SVG 20010904//EN"
 "http://www.w3.org/TR/2001/REC-SVG-20010904/DTD/svg10.dtd">
<svg version="1.0" xmlns="http://www.w3.org/2000/svg"
 width="700.000000pt" height="700.000000pt" viewBox="0 0 700.000000 700.000000"
 preserveAspectRatio="xMidYMid meet">
<metadata>
Created by potrace 1.11, written by Peter Selinger 2001-2013
</metadata>
<g transform="translate(0.000000,700.000000) scale(0.100000,-0.100000)"
fill="#000000" stroke="none">
<path d="M3433 6907 c-64 -24 -66 -30 -66 -194 1 -81 1 -157 2 -169 2 -46 121
-79 196 -54 65 21 70 38 70 212 -1 168 -5 180 -55 200 -39 16 -112 18 -147 5z"/>
<path d="M2686 6730 c-70 -22 -89 -82 -37 -119 16 -12 31 -21 34 -21 3 0 35
-18 71 -40 36 -22 70 -40 76 -40 5 0 10 -3 10 -7 0 -5 10 -13 23 -19 12 -6 61
-32 108 -57 78 -41 92 -45 139 -41 28 2 65 11 81 19 32 17 48 59 32 84 -9 14
-83 60 -223 138 -25 14 -76 43 -113 65 -73 42 -145 56 -201 38z"/>
<path d="M4170 6721 c-47 -23 -124 -65 -130 -71 -3 -3 -18 -12 -35 -21 -106
-57 -226 -132 -234 -147 -32 -59 82 -118 178 -92 21 5 123 59 227 118 198 114
225 138 200 177 -31 48 -142 67 -206 36z"/>
<path d="M3446 6339 c-51 -12 -95 -39 -103 -64 -4 -11 -7 -211 -7 -445 l-1
-425 -610 -1 c-335 -1 -626 -4 -645 -8 -19 -4 -48 -9 -65 -12 -98 -16 -209
-69 -277 -132 -85 -80 -83 -66 -83 -492 0 -368 0 -376 22 -416 46 -87 177
-168 321 -200 43 -9 82 -18 87 -19 11 -3 14 -2719 3 -2730 -4 -4 -24 -9 -45
-12 -67 -9 -199 -59 -257 -98 -62 -41 -112 -102 -126 -155 -5 -19 -9 -192 -9
-385 0 -321 2 -353 19 -393 36 -80 146 -162 271 -201 121 -38 149 -39 1589
-37 767 1 1409 6 1425 10 206 49 328 123 375 229 18 39 19 68 17 412 l-2 370
-25 40 c-32 52 -64 83 -125 122 -52 33 -175 77 -237 86 -20 2 -40 7 -44 10 -7
4 -11 2694 -5 2728 0 4 16 10 34 13 71 13 81 16 116 27 101 32 193 89 235 144
54 71 55 74 55 459 0 329 -2 361 -19 402 -47 109 -203 199 -395 230 -27 4
-320 9 -650 10 -330 1 -605 2 -611 3 -7 1 -10 131 -10 419 0 229 -3 428 -7
442 -13 52 -126 89 -211 69z"/>
<path d="M2352 6289 c-69 -34 -65 -91 8 -122 36 -15 584 -16 635 -2 48 15 85
58 69 82 -6 10 -23 26 -38 37 -26 20 -43 21 -329 23 -290 3 -304 2 -345 -18z"/>
<path d="M3999 6296 c-48 -15 -69 -34 -69 -62 0 -30 32 -60 78 -71 20 -5 163
-9 317 -8 258 1 283 2 319 20 22 11 43 30 47 42 11 32 -25 72 -76 83 -58 13
-572 10 -616 -4z"/>
<path d="M2945 6072 c-22 -5 -63 -27 -260 -140 -71 -41 -141 -84 -154 -97 -53
-52 9 -110 116 -109 61 1 69 5 255 111 240 137 261 161 187 215 -24 18 -106
29 -144 20z"/>
<path d="M3918 6057 c-32 -16 -44 -29 -46 -48 -4 -34 27 -60 151 -130 50 -29
106 -60 122 -69 17 -9 55 -31 86 -49 91 -51 189 -50 239 4 23 24 23 28 10 52
-15 26 -248 171 -370 230 -71 35 -136 38 -192 10z"/>
</g>
</svg>
