<?xml version="1.0" standalone="no"?>
<!DOCTYPE svg PUBLIC "-//W3C//DTD SVG 20010904//EN"
 "http://www.w3.org/TR/2001/REC-SVG-20010904/DTD/svg10.dtd">
<svg version="1.0" xmlns="http://www.w3.org/2000/svg"
 width="400.000000pt" height="400.000000pt" viewBox="0 0 400.000000 400.000000"
 preserveAspectRatio="xMidYMid meet">
<metadata>
Created by potrace 1.11, written by Peter Selinger 2001-2013
</metadata>
<g transform="translate(0.000000,400.000000) scale(0.100000,-0.100000)"
fill="#000000" stroke="none">
<path d="M1909 3850 c-47 -25 -86 -71 -99 -118 -13 -50 -13 -794 0 -844 41
-148 251 -188 343 -66 44 58 47 92 47 488 0 396 -3 430 -47 488 -52 69 -166
93 -244 52z"/>
<path d="M805 3391 c-95 -57 -127 -168 -78 -266 20 -40 526 -550 582 -586 96
-62 231 -26 280 73 26 55 27 120 2 173 -23 49 -573 599 -614 615 -46 17 -138
12 -172 -9z"/>
<path d="M3015 3396 c-46 -21 -591 -574 -610 -618 -54 -131 37 -268 177 -268
34 0 72 7 91 16 44 22 574 550 597 594 26 52 33 101 20 149 -12 46 -59 105
-101 127 -35 18 -134 18 -174 0z"/>
<path d="M1930 2445 c-61 -19 -113 -65 -142 -122 l-23 -48 -3 -1102 -2 -1103
240 0 240 0 0 1075 c0 738 -3 1090 -11 1125 -28 132 -172 216 -299 175z"/>
<path d="M355 2293 c-72 -38 -105 -94 -105 -179 0 -80 32 -133 102 -168 l52
-26 405 0 c372 0 409 2 446 19 79 35 122 115 112 203 -8 64 -38 112 -91 143
l-43 25 -424 0 c-367 -1 -428 -3 -454 -17z"/>
<path d="M2723 2285 c-132 -79 -119 -282 22 -346 37 -17 74 -19 446 -19 l405
0 52 26 c70 35 102 88 102 168 0 84 -33 142 -102 177 -35 18 -65 19 -460 19
l-423 0 -42 -25z"/>
<path d="M1185 1711 c-55 -26 -599 -572 -620 -623 -51 -125 44 -267 181 -268
81 0 123 33 416 327 291 294 298 303 298 393 -1 135 -152 229 -275 171z"/>
<path d="M2667 1715 c-100 -35 -147 -138 -116 -250 9 -33 59 -88 287 -318 293
-294 335 -327 416 -327 141 1 236 149 177 275 -26 55 -572 599 -623 620 -45
18 -90 19 -141 0z"/>
</g>
</svg>
