<?xml version="1.0" encoding="utf-8"?>
<!-- Generator: Adobe Illustrator 22.1.0, SVG Export Plug-In . SVG Version: 6.00 Build 0)  -->
<svg version="1.1" baseProfile="basic" id="Layer_1"
	 xmlns="http://www.w3.org/2000/svg" xmlns:xlink="http://www.w3.org/1999/xlink" x="0px" y="0px" viewBox="0 0 841.9 595.3"
	 xml:space="preserve">
<style type="text/css">
	.st0{fill:#FFFFFF;stroke:#FFFFFF;stroke-miterlimit:10;}
	.st1{fill-rule:evenodd;clip-rule:evenodd;fill:#FBAF40;}
	.st2{fill-rule:evenodd;clip-rule:evenodd;fill:#989898;}
	.st3{fill:#3D3D3D;}
	.st4{fill:#C40711;}
</style>
<circle class="st0" cx="420.9" cy="297.6" r="255.3"/>
<g>
	<g>
		<rect x="372.9" y="250.6" class="st1" width="96.1" height="195.8"/>
		<path class="st2" d="M370.6,176.8h100.7c8.1,0,14.7,6.6,14.7,14.7v44.4c0,8.1-6.6,14.7-14.7,14.7H370.6c-8.1,0-14.7-6.6-14.7-14.7
			v-44.4C355.9,183.4,362.5,176.8,370.6,176.8"/>
		<path class="st2" d="M370.6,446.4h100.7c8.1,0,14.7,6.6,14.7,14.7v44.4c0,8.1-6.6,14.7-14.7,14.7H370.6c-8.1,0-14.7-6.6-14.7-14.7
			v-44.4C355.9,453,362.5,446.4,370.6,446.4"/>
	</g>
	<g>
		<path class="st3" d="M471.3,452.7H370.6c-2.3,0-4.4,0.9-6,2.5l0,0c-1.5,1.5-2.5,3.6-2.5,6v44.4c0,2.3,1,4.4,2.5,6v0
			c1.5,1.5,3.6,2.5,6,2.5h100.7c2.3,0,4.4-1,6-2.5c1.5-1.5,2.5-3.6,2.5-6v-44.4c0-2.3-0.9-4.4-2.5-6h0
			C475.7,453.6,473.6,452.7,471.3,452.7 M414.7,256.9h-35.5v183.2h35.5V394l-9.6-7.5c-0.8-0.7-1.5-1.6-2-2.6
			c-1.3-3.2,0.3-6.9,3.6-8.1l9.2-3.6l-9.2-3.6c-1.6-0.6-2.9-1.9-3.6-3.6c-1.3-3.2,0.3-6.9,3.6-8.1l9.1-3.6l-9.1-3.6
			c-1.6-0.6-2.9-1.9-3.6-3.6c-1.3-3.2,0.3-6.9,3.6-8.1l9.2-3.6l-9.2-3.6c-1.6-0.6-2.9-1.9-3.6-3.6c-1.3-3.2,0.3-6.9,3.6-8.1
			l13.8-5.4l-3-2.4c-1.7-1.1-2.8-3-2.8-5.2V256.9z M462.7,256.9h-35.5v46.2l9.6,7.5c2.7,2.1,3.2,6.1,1.1,8.8c-0.7,0.9-1.6,1.6-2.7,2
			l-9.2,3.6l9.2,3.6c3.2,1.3,4.8,4.9,3.6,8.1c-0.7,1.7-2,2.9-3.6,3.6l-9.2,3.6l9.2,3.6c3.2,1.3,4.8,4.9,3.6,8.1
			c-0.7,1.7-2,2.9-3.6,3.6l-9.1,3.6l9.1,3.6c3.2,1.3,4.8,4.9,3.6,8.1c-0.7,1.7-2,2.9-3.6,3.6l-13.8,5.4l3.4,2.7
			c1.6,1.2,2.4,3.1,2.4,4.9l0,49.2h35.5V256.9z M414.7,113.6c0-3.5,2.8-6.3,6.3-6.3c3.5,0,6.3,2.8,6.3,6.3v56.9h44.1
			c5.8,0,11,2.4,14.8,6.2c3.8,3.8,6.2,9.1,6.2,14.8v44.4c0,5.8-2.4,11-6.2,14.8c-2.9,2.9-6.7,5-10.9,5.8v184c4.2,0.8,8,2.9,10.9,5.8
			c3.8,3.8,6.2,9.1,6.2,14.8v44.4c0,5.8-2.4,11-6.2,14.8c-3.8,3.8-9,6.2-14.8,6.2H370.6c-5.8,0-11-2.4-14.8-6.2
			c-3.8-3.8-6.2-9-6.2-14.8v-44.4c0-5.7,2.4-11,6.2-14.8l0,0c2.9-2.9,6.7-5,10.9-5.8v-184c-4.2-0.8-8-2.9-10.9-5.8
			c-3.8-3.8-6.2-9-6.2-14.8v-44.4c0-5.7,2.4-11,6.2-14.8l0,0c3.8-3.8,9.1-6.2,14.8-6.2h44.1V113.6z M471.3,244.4c2.3,0,4.4-1,6-2.5
			c1.5-1.5,2.5-3.6,2.5-6v-44.4c0-2.3-0.9-4.4-2.5-6h0c-1.5-1.5-3.6-2.5-6-2.5H370.6c-2.3,0-4.4,0.9-6,2.5l0,0
			c-1.5,1.5-2.5,3.6-2.5,6v44.4c0,2.3,1,4.4,2.5,6v0c1.5,1.5,3.6,2.5,6,2.5C404.2,244.4,437.7,244.4,471.3,244.4z"/>
		<path class="st4" d="M399.1,109.9c2.9,0,5.2,2.3,5.2,5.2c0,2.9-2.3,5.2-5.2,5.2h-19.3c-2.9,0-5.2-2.3-5.2-5.2
			c0-2.9,2.3-5.2,5.2-5.2H399.1z M457.7,140.4c2,2,2.1,5.3,0,7.4c-2,2-5.3,2.1-7.4,0l-13.6-13.6c-2-2-2.1-5.3,0-7.4
			c2-2,5.3-2.1,7.4,0L457.7,140.4z M409.2,96c2,2,2,5.4,0,7.4c-2,2-5.4,2-7.4,0l-13.6-13.6c-2-2-2-5.4,0-7.4c2-2,5.4-2,7.4,0
			L409.2,96z M426.2,93.3c0,2.9-2.3,5.2-5.2,5.2c-2.9,0-5.2-2.3-5.2-5.2V74c0-2.9,2.3-5.2,5.2-5.2c2.9,0,5.2,2.3,5.2,5.2V93.3z
			 M391.6,147.8c-2,2-5.4,2-7.4,0c-2-2-2-5.4,0-7.4l13.6-13.6c2-2,5.4-2,7.4,0c2,2,2,5.4,0,7.4L391.6,147.8z M440.1,103.4
			c-2,2-5.3,2.1-7.4,0c-2-2-2.1-5.3,0-7.4l13.6-13.6c2-2,5.3-2.1,7.4,0c2,2,2.1,5.3,0,7.4L440.1,103.4z M462,109.9
			c2.9,0,5.2,2.3,5.2,5.2c0,2.9-2.3,5.2-5.2,5.2h-19.3c-2.9,0-5.2-2.3-5.2-5.2c0-2.9,2.3-5.2,5.2-5.2H462z"/>
	</g>
</g>
</svg>
