<?xml version="1.0" encoding="utf-8"?>
<!-- Generator: Adobe Illustrator 22.1.0, SVG Export Plug-In . SVG Version: 6.00 Build 0)  -->
<svg version="1.1" baseProfile="basic" id="Layer_1"
	 xmlns="http://www.w3.org/2000/svg" xmlns:xlink="http://www.w3.org/1999/xlink" x="0px" y="0px" viewBox="0 0 700 320"
	 xml:space="preserve">
<style type="text/css">
	.st0{fill:#FFFFFF;}
</style>
<g>
	<path class="st0" d="M388.8,171.7H487c9,0,18.1,2.3,24.6,8.7s9,15.4,9,24.4v3.5c0,3.9-2.5,6.4-6.4,6.4h-15.8
		c-3.9,0-6.4-2.5-6.4-6.4v-1.1c0-2.1-0.3-6.4-2-7.9c-1.7-1.6-6.3-1.9-8.4-1.9H393c-5.2,0-9.4,4.3-9.4,9.4v5.9c0,4.7,3.9,8.6,8.6,8.6
		c32.9,0,66,0,98.9,0c17.1,0,31.2,14.1,31.2,31.2v13c0,16.9-13.9,30.8-30.8,30.8h-99.9c-8.8,0-17.9-2.4-24.5-8.7
		c-6.6-6.4-9-15.3-9-24.2v-3.7c0-4,2.4-6.4,6.4-6.4h15.8c4,0,6.4,2.4,6.4,6.4v1.5c0,2.1,0.3,6.2,2,7.8c1.9,1.7,6.2,1.9,8.4,1.9h90
		c5.2,0,9.4-4.3,9.4-9.4v-5.9c0-4.7-3.9-8.6-8.6-8.6c-32.9,0-66,0-98.9,0c-17.1,0-31.2-14.1-31.2-31.2v-13
		C358,185.5,371.8,171.7,388.8,171.7 M684.5,171.7c3.9,0,6.3,2.7,6.3,6.4v12.6c0,3.7-2.5,6.4-6.3,6.4c-46.1,0-92,0-138,0
		c-3.7,0-6.3-2.8-6.3-6.4v-12.6c0-3.7,2.4-6.4,6.3-6.4C592.6,171.7,638.6,171.7,684.5,171.7z M569,270.7h115.6
		c3.9,0,6.3,2.7,6.3,6.4v12.6c0,3.7-2.5,6.4-6.3,6.4H546.8c-3.9,0-6.4-2.5-6.4-6.4c0-21,0-41.9,0-62.9c0-3.7,2.4-6.4,6.3-6.4
		c46.1,0,92,0,138,0c3.9,0,6.3,2.7,6.3,6.4v12.6c0,3.7-2.5,6.4-6.3,6.4c-38.7,0-77.3,0-115.6-0.5v25.4H569z M37.6,225.1h80.7
		c3.9,0,6.4,2.5,6.4,6.4V244c0,3.9-2.5,6.7-6.4,6.7l-80.6-0.5v39.5c0,3.9-2.7,6.4-6.4,6.4H15.5c-3.9,0-6.4-2.5-6.4-6.4V178
		c0-4,2.4-6.4,6.4-6.4h136.3c3.9,0,6.3,2.7,6.3,6.4v12.6c0,3.7-2.4,6.4-6.3,6.4l-114.1-0.5L37.6,225.1z M317.7,171.7h15.7
		c3.9,0,6.7,2.3,6.7,6.3v85.4c0,9-2.3,17.8-8.8,24.2c-6.6,6.4-15.4,8.6-24.4,8.6h-97.6c-9,0-17.9-2.1-24.5-8.6
		c-6.6-6.4-8.7-15.3-8.7-24.4V178c0-4,2.4-6.4,6.4-6.4h15.8c4,0,6.4,2.5,6.4,6.4v84.1c0,2,0.3,5.2,1.7,6.7c1.5,1.5,4.4,1.7,6.4,1.7
		h90c2,0,5.1-0.3,6.7-1.7c1.5-1.5,1.7-4.7,1.7-6.7V178C311.2,174.1,313.6,171.7,317.7,171.7z"/>
	<path class="st0" d="M111.3,32.6v112.3c0,2.5-1.3,3.9-3.9,3.9H91.5c-2.5,0-3.9-1.3-3.9-3.9V32.6c0-2.7,1.3-3.9,3.9-3.9h15.9
		C110,28.6,111.3,29.9,111.3,32.6 M178.9,148.8h-19.8c-9.9,0-17.4-2.7-22.8-7.9c-5.4-5.2-8-12.7-8-22.6V59.1c0-9.9,2.7-17.4,8-22.6
		s13-7.9,22.8-7.9h19.8c9.8,0,17.3,2.7,22.6,7.9c5.4,5.4,8,12.9,8,22.5v5.6c0,2.7-1.3,4.2-3.9,4.2h-15.9c-2.7,0-3.9-1.3-3.9-4.2
		v-4.6c0-4-0.8-6.8-2.4-8.6c-1.6-1.7-4.4-2.5-8.4-2.5h-12.2c-3.9,0-6.7,0.8-8.3,2.5c-1.7,1.7-2.5,4.6-2.5,8.6v57
		c0,4,0.8,6.8,2.5,8.6s4.4,2.5,8.3,2.5h12.2c4,0,6.8-0.8,8.4-2.5c1.6-1.7,2.4-4.6,2.4-8.6v-11.8c0-1.3-0.7-2-2-2h-11.2
		c-2.7,0-3.9-1.3-3.9-3.9V86.7c0-2.7,1.3-3.9,3.9-3.9h32.7c2.8,0,4.3,1.5,4.3,4.3v31.2c0,9.8-2.7,17.3-8,22.5
		C196.2,146.1,188.6,148.8,178.9,148.8z M245.4,148.8h-15.9c-2.7,0-3.9-1.3-3.9-3.9V32.6c0-2.7,1.3-3.9,3.9-3.9h15.9
		c2.7,0,3.9,1.3,3.9,3.9v43.9c0,1.3,0.8,2,2.3,2h31.6c1.3,0,2-0.7,2-2V32.6c0-2.7,1.3-3.9,3.9-3.9h15.9c2.7,0,3.9,1.3,3.9,3.9v112.3
		c0,2.5-1.3,3.9-3.9,3.9H289c-2.7,0-3.9-1.3-3.9-3.9v-43.8c0-1.3-0.7-2-2-2h-31.6c-1.5,0-2.3,0.7-2.3,2v43.8
		C249.2,147.5,247.9,148.8,245.4,148.8z M363.9,148.8h-15.7c-2.7,0-4.2-1.3-4.2-3.9V51.3c0-1.3-0.7-2-2-2h-21.3
		c-2.7,0-3.9-1.3-3.9-3.9V32.7c0-2.7,1.3-3.9,3.9-3.9h70.7c2.7,0,3.9,1.3,3.9,3.9v12.7c0,2.7-1.3,3.9-3.9,3.9h-21.3
		c-1.5,0-2.3,0.7-2.3,2v93.6C367.9,147.5,366.5,148.8,363.9,148.8z M481.4,148.8h-15.7c-2.7,0-4.2-1.3-4.2-3.9V51.3c0-1.3-0.7-2-2-2
		h-21.3c-2.7,0-3.9-1.3-3.9-3.9V32.7c0-2.7,1.3-3.9,3.9-3.9H509c2.7,0,3.9,1.3,3.9,3.9v12.7c0,2.7-1.3,3.9-3.9,3.9h-21.3
		c-1.5,0-2.3,0.7-2.3,2v93.6C485.3,147.5,484,148.8,481.4,148.8z M540.3,148.8h-15.9c-2.7,0-3.9-1.3-3.9-3.9V32.6
		c0-2.7,1.3-3.9,3.9-3.9h15.9c2.7,0,3.9,1.3,3.9,3.9v43.9c0,1.3,0.8,2,2.3,2h31.6c1.3,0,2-0.7,2-2V32.6c0-2.7,1.3-3.9,3.9-3.9h15.9
		c2.7,0,3.9,1.3,3.9,3.9v112.3c0,2.5-1.3,3.9-3.9,3.9H584c-2.7,0-3.9-1.3-3.9-3.9v-43.8c0-1.3-0.7-2-2-2h-31.6c-1.5,0-2.3,0.7-2.3,2
		v43.8C544.2,147.5,543,148.8,540.3,148.8z M686.8,148.8h-61.1c-2.7,0-3.9-1.3-3.9-3.9V32.6c0-2.7,1.3-3.9,3.9-3.9h61.1
		c2.5,0,3.7,1.3,3.7,3.9v12.7c0,2.7-1.2,3.9-3.7,3.9h-39.1c-1.5,0-2.3,0.7-2.3,2v24.4c0,1.3,0.8,2,2.3,2h32c2.7,0,3.9,1.3,3.9,3.9
		v12.7c0,2.7-1.3,3.9-3.9,3.9h-32c-1.5,0-2.3,0.7-2.3,2v26c0,1.3,0.8,2,2.3,2h39.1c2.5,0,3.7,1.3,3.7,3.9v12.7
		C690.6,147.5,689.2,148.8,686.8,148.8z M74.6,148.8H13.2c-2.7,0-3.9-1.3-3.9-3.9V32.6c0-2.7,1.3-3.9,3.9-3.9h15.9
		c2.7,0,3.9,1.3,3.9,3.9v93.5c0,1.3,0.8,2,2.3,2h39.5c2.5,0,3.7,1.3,3.7,4.2v12.7C78.4,147.5,77.1,148.8,74.6,148.8z"/>
</g>
</svg>
